# xmcd
#
# Track frame offsets:
#	150
#	16294
#	29633
#	50113
#	70886
#	84242
#	99591
#	117446
#	131832
#	149066
#	162096
#	175935
#	185671
#	197882
#	216511
#	229601
#
# Disc length: 3245 seconds
#
# Revision: 0
# Processed by: cddbd v1.5.2PL0 Copyright (c) Steve Scherf et al.
# Submitted via: audiograbber 1.83.01
#
DISCID=f40cab10
DTITLE=Various Artist - Winners 2019 [Disc 2]
DYEAR=2019
DGENRE=Country
TTITLE0=Troy Cassar-Daley - Wouldn't Change A Thing
TTITLE1=John Williamson - Buddy And Slim
TTITLE2=Beccy Cole - Lioness
TTITLE3=Catherine Britt - Bush TV
TTITLE4=Adam Harvey - I'd Rather Be A Highwayman
TTITLE5=Bennett, Bowtell and Urquhart - Love Or Money
TTITLE6=Andrew Swift - Runaway Train
TTITLE7=Judah Kelly - Real Good Time
TTITLE8=Montgomery Church - I'm Gonna Love Her All The Time
TTITLE9=Dean Perrett - Earn Your Spurs
TTITLE10=Allan Caswell - Feeding The Crew
TTITLE11=Lindsay Waddington - Nullarbor
TTITLE12=Rex Dallas - Lady Of The Road
TTITLE13=Jeff Brown - After January Rains
TTITLE14=Runaway Dixie - Tele Rambler
TTITLE15=Hillbilly Goats - Gypsy Girl
EXTD=CMAA Golden Guitar Awards Australia
EXTT0=
EXTT1=
EXTT2=
EXTT3=
EXTT4=
EXTT5=
EXTT6=
EXTT7=
EXTT8=
EXTT9=
EXTT10=
EXTT11=
EXTT12=
EXTT13=
EXTT14=
EXTT15=
PLAYORDER=
